<svg xmlns="http://www.w3.org/2000/svg" width="512" height="512" viewBox="0 0 512 512">
  
  <defs>
    <linearGradient id="bg" x1="0" y1="0" x2="0" y2="1">
      <stop offset="0" stop-color="#2f3c5c"/>
      <stop offset="1" stop-color="#121827"/>
    </linearGradient>
    <linearGradient id="gold" gradientUnits="userSpaceOnUse" x1="0" y1="6" x2="0" y2="58">
      <stop offset="0" stop-color="#ffd98f"/>
      <stop offset="1" stop-color="#e3972c"/>
    </linearGradient>
    <filter id="shadow" x="-20%" y="-20%" width="140%" height="150%">
      <feDropShadow dx="0" dy="1.6" stdDeviation="1.6" flood-color="#000" flood-opacity="0.35"/>
    </filter>
  </defs>
  <rect x="0" y="0" width="512" height="512" rx="71.45631067961165" fill="url(#bg)"/>
  <rect x="122.88" y="88.064" width="266.24" height="348.16" rx="35.84" fill="#ffffff" fill-opacity="0.07" transform="rotate(-9 256 262.144)"/>
  <g transform="translate(256 262.144) scale(4.8) translate(-32 -31)" fill="none" stroke="url(#gold)" stroke-width="5.2" stroke-linecap="round" stroke-linejoin="round" filter="url(#shadow)">
  <circle cx="32" cy="12.5" r="5.5"/>
  <path d="M32 18v35"/>
  <path d="M21 27h22"/>
  <path d="M12.5 37c1.8 10 10 16 19.5 16s17.7-6 19.5-16"/>
  <path d="M8.5 40.5 12.5 35l5 4"/>
  <path d="M55.5 40.5 51.5 35l-5 4"/></g>
</svg>